<svg xmlns="http://www.w3.org/2000/svg" viewBox="0 0 960 600" fill="none">
  <defs>
    <linearGradient id="brand-d" x1="0" y1="0" x2="1" y2="0">
      <stop offset="0%" stop-color="#818cf8"/>
      <stop offset="50%" stop-color="#a78bfa"/>
      <stop offset="100%" stop-color="#c084fc"/>
    </linearGradient>
    <linearGradient id="cta-d" x1="0" y1="0" x2="1" y2="0">
      <stop offset="0%" stop-color="#6366f1"/>
      <stop offset="100%" stop-color="#4f46e5"/>
    </linearGradient>
    <filter id="shadow-d" x="-4%" y="-4%" width="108%" height="116%">
      <feDropShadow dx="0" dy="2" stdDeviation="8" flood-opacity="0.3"/>
    </filter>
    <filter id="shadow-sm-d" x="-2%" y="-2%" width="104%" height="112%">
      <feDropShadow dx="0" dy="1" stdDeviation="4" flood-opacity="0.2"/>
    </filter>
    <clipPath id="round-d"><rect width="960" height="600" rx="12"/></clipPath>
  </defs>

  <g clip-path="url(#round-d)">
    <!-- Background -->
    <rect width="960" height="600" fill="#09090b"/>

    <!-- Decorative orb -->
    <circle cx="880" cy="60" r="260" fill="#6366f1" opacity="0.05"/>
    <circle cx="80" cy="540" r="200" fill="#8b5cf6" opacity="0.03"/>

    <!-- Header bar -->
    <rect width="960" height="52" fill="#09090b" opacity="0.9"/>
    <line x1="0" y1="52" x2="960" y2="52" stroke="#ffffff" stroke-opacity="0.06"/>
    <!-- Brand -->
    <text x="20" y="30" font-family="system-ui,-apple-system,sans-serif" font-size="17" font-weight="800" fill="url(#brand-d)">AgentForge</text>
    <text x="20" y="43" font-family="system-ui,-apple-system,sans-serif" font-size="8" font-weight="600" fill="#52525b" letter-spacing="1.2">WORKTREE ORCHESTRATOR</text>
    <!-- Header buttons -->
    <text x="790" y="31" font-family="system-ui,-apple-system,sans-serif" font-size="12" font-weight="500" fill="#a1a1aa">Prompts</text>
    <text x="866" y="31" font-family="system-ui,-apple-system,sans-serif" font-size="12" font-weight="500" fill="#a1a1aa">Settings</text>

    <!-- Project bar -->
    <rect x="16" y="64" width="928" height="44" rx="12" fill="#ffffff" opacity="0.03" filter="url(#shadow-sm-d)"/>
    <rect x="16" y="64" width="928" height="44" rx="12" fill="none" stroke="#ffffff" stroke-opacity="0.06"/>
    <!-- Folder icon box -->
    <rect x="30" y="73" width="26" height="26" rx="7" fill="#6366f1" opacity="0.15"/>
    <path d="M37 82v8a1.5 1.5 0 001.5 1.5h10a1.5 1.5 0 001.5-1.5v-6a1.5 1.5 0 00-1.5-1.5h-4.5l-1.5-1.5h-4A1.5 1.5 0 0037 82z" stroke="#818cf8" stroke-width="1.5" fill="none"/>
    <!-- Project label -->
    <text x="64" y="81" font-family="system-ui,-apple-system,sans-serif" font-size="8" font-weight="600" fill="#52525b" letter-spacing="1">PROJECT</text>
    <text x="64" y="97" font-family="system-ui,-apple-system,sans-serif" font-size="13" font-weight="700" fill="#fafafa">my-saas-app</text>
    <!-- Switch button -->
    <text x="896" y="91" font-family="system-ui,-apple-system,sans-serif" font-size="11" font-weight="600" fill="#818cf8" text-anchor="end">Switch</text>

    <!-- Board header -->
    <text x="24" y="140" font-family="system-ui,-apple-system,sans-serif" font-size="13" font-weight="700" fill="#fafafa">Worktrees</text>
    <rect x="92" y="128" width="20" height="18" rx="6" fill="#ffffff" opacity="0.06"/>
    <text x="102" y="141" font-family="system-ui,-apple-system,sans-serif" font-size="11" font-weight="700" fill="#a1a1aa" text-anchor="middle">3</text>

    <!-- Add worktree button -->
    <rect x="838" y="124" width="106" height="32" rx="10" fill="url(#cta-d)" filter="url(#shadow-sm-d)"/>
    <text x="860" y="144" font-family="system-ui,-apple-system,sans-serif" font-size="12" font-weight="600" fill="#ffffff">+ Add worktree</text>

    <!-- Agent Card 1 — auth-refactor, PR Open -->
    <rect x="20" y="166" width="296" height="230" rx="16" fill="#ffffff" opacity="0.03" filter="url(#shadow-d)"/>
    <rect x="20" y="166" width="296" height="230" rx="16" fill="none" stroke="#ffffff" stroke-opacity="0.06"/>
    <text x="40" y="196" font-family="system-ui,-apple-system,sans-serif" font-size="14" font-weight="700" fill="#fafafa">auth-refactor</text>
    <text x="40" y="214" font-family="ui-monospace,monospace" font-size="11" fill="#52525b">feature/auth-refactor</text>
    <text x="40" y="238" font-family="ui-monospace,monospace" font-size="11" font-weight="500" fill="#a1a1aa">feature/auth-refactor</text>
    <text x="200" y="238" font-family="ui-monospace,monospace" font-size="11" fill="#52525b">a3f21b4</text>
    <!-- Clean badge -->
    <rect x="260" y="226" width="42" height="18" rx="9" fill="#10b981" opacity="0.12"/>
    <text x="270" y="239" font-family="system-ui,-apple-system,sans-serif" font-size="8" font-weight="600" fill="#34d399" letter-spacing="0.5">CLEAN</text>
    <!-- Path -->
    <text x="40" y="262" font-family="ui-monospace,monospace" font-size="10" fill="#52525b">.worktrees/auth-refactor</text>
    <!-- PR status: Open -->
    <rect x="40" y="278" width="96" height="20" rx="10" fill="#10b981" opacity="0.12"/>
    <text x="52" y="292" font-family="system-ui,-apple-system,sans-serif" font-size="9" font-weight="700" fill="#34d399">PR #12 &#183; Open</text>
    <text x="146" y="292" font-family="system-ui,-apple-system,sans-serif" font-size="9" font-weight="600" fill="#818cf8">Open PR</text>
    <!-- Refresh icon -->
    <circle cx="296" cy="288" r="8" fill="#ffffff" opacity="0.04"/>
    <!-- Tool buttons -->
    <rect x="40" y="350" width="60" height="28" rx="8" fill="#8b5cf6" opacity="0.12" stroke="#8b5cf6" stroke-opacity="0.2"/>
    <text x="50" y="368" font-family="system-ui,-apple-system,sans-serif" font-size="11" font-weight="600" fill="#c4b5fd">Cursor</text>
    <rect x="108" y="350" width="80" height="28" rx="8" fill="#f97316" opacity="0.12" stroke="#f97316" stroke-opacity="0.2"/>
    <text x="118" y="368" font-family="system-ui,-apple-system,sans-serif" font-size="11" font-weight="600" fill="#fdba74">Claude CLI</text>

    <!-- Agent Card 2 — payment-flow, PR Draft -->
    <rect x="332" y="166" width="296" height="230" rx="16" fill="#ffffff" opacity="0.03" filter="url(#shadow-d)"/>
    <rect x="332" y="166" width="296" height="230" rx="16" fill="none" stroke="#ffffff" stroke-opacity="0.06"/>
    <text x="352" y="196" font-family="system-ui,-apple-system,sans-serif" font-size="14" font-weight="700" fill="#fafafa">payment-flow</text>
    <text x="352" y="214" font-family="ui-monospace,monospace" font-size="11" fill="#52525b">feature/payment-flow</text>
    <text x="352" y="238" font-family="ui-monospace,monospace" font-size="11" font-weight="500" fill="#a1a1aa">feature/payment-flow</text>
    <text x="512" y="238" font-family="ui-monospace,monospace" font-size="11" fill="#52525b">e7c09f2</text>
    <!-- Dirty badge -->
    <rect x="572" y="226" width="40" height="18" rx="9" fill="#f59e0b" opacity="0.12"/>
    <text x="580" y="239" font-family="system-ui,-apple-system,sans-serif" font-size="8" font-weight="600" fill="#fbbf24" letter-spacing="0.5">DIRTY</text>
    <!-- Ahead indicator -->
    <text x="572" y="258" font-family="system-ui,-apple-system,sans-serif" font-size="10" font-weight="500" fill="#71717a">2&#x2191;</text>
    <!-- Path -->
    <text x="352" y="262" font-family="ui-monospace,monospace" font-size="10" fill="#52525b">.worktrees/payment-flow</text>
    <!-- PR status: Draft -->
    <rect x="352" y="278" width="96" height="20" rx="10" fill="#ffffff" opacity="0.06"/>
    <text x="364" y="292" font-family="system-ui,-apple-system,sans-serif" font-size="9" font-weight="700" fill="#a1a1aa">PR #15 &#183; Draft</text>
    <text x="458" y="292" font-family="system-ui,-apple-system,sans-serif" font-size="9" font-weight="600" fill="#818cf8">Open PR</text>
    <!-- Tool buttons -->
    <rect x="352" y="350" width="60" height="28" rx="8" fill="#8b5cf6" opacity="0.12" stroke="#8b5cf6" stroke-opacity="0.2"/>
    <text x="362" y="368" font-family="system-ui,-apple-system,sans-serif" font-size="11" font-weight="600" fill="#c4b5fd">Cursor</text>
    <rect x="420" y="350" width="80" height="28" rx="8" fill="#f97316" opacity="0.12" stroke="#f97316" stroke-opacity="0.2"/>
    <text x="430" y="368" font-family="system-ui,-apple-system,sans-serif" font-size="11" font-weight="600" fill="#fdba74">Claude CLI</text>

    <!-- Agent Card 3 — api-tests, PR Merged -->
    <rect x="644" y="166" width="296" height="230" rx="16" fill="#ffffff" opacity="0.03" filter="url(#shadow-d)"/>
    <rect x="644" y="166" width="296" height="230" rx="16" fill="none" stroke="#ffffff" stroke-opacity="0.06"/>
    <text x="664" y="196" font-family="system-ui,-apple-system,sans-serif" font-size="14" font-weight="700" fill="#fafafa">api-tests</text>
    <text x="664" y="214" font-family="ui-monospace,monospace" font-size="11" fill="#52525b">feature/api-tests</text>
    <text x="664" y="238" font-family="ui-monospace,monospace" font-size="11" font-weight="500" fill="#a1a1aa">feature/api-tests</text>
    <text x="804" y="238" font-family="ui-monospace,monospace" font-size="11" fill="#52525b">1b5de8a</text>
    <!-- Clean badge -->
    <rect x="880" y="226" width="42" height="18" rx="9" fill="#10b981" opacity="0.12"/>
    <text x="890" y="239" font-family="system-ui,-apple-system,sans-serif" font-size="8" font-weight="600" fill="#34d399" letter-spacing="0.5">CLEAN</text>
    <!-- Path -->
    <text x="664" y="262" font-family="ui-monospace,monospace" font-size="10" fill="#52525b">.worktrees/api-tests</text>
    <!-- PR status: Merged -->
    <rect x="664" y="278" width="108" height="20" rx="10" fill="#8b5cf6" opacity="0.12"/>
    <text x="676" y="292" font-family="system-ui,-apple-system,sans-serif" font-size="9" font-weight="700" fill="#c4b5fd">PR #8 &#183; Merged</text>
    <text x="782" y="292" font-family="system-ui,-apple-system,sans-serif" font-size="9" font-weight="600" fill="#818cf8">Open PR</text>
    <!-- Tool buttons -->
    <rect x="664" y="350" width="60" height="28" rx="8" fill="#f59e0b" opacity="0.12" stroke="#f59e0b" stroke-opacity="0.2"/>
    <text x="674" y="368" font-family="system-ui,-apple-system,sans-serif" font-size="11" font-weight="600" fill="#fcd34d">Ollama</text>
  </g>
</svg>
